<svg id="white" xmlns="http://www.w3.org/2000/svg" viewBox="0 0 612.01 326.99"><defs><style>.cls-1,.cls-2,.cls-3{fill:#fff;}.cls-1,.cls-2,.cls-4{stroke:#006a38;}.cls-1,.cls-2,.cls-4,.cls-5{stroke-miterlimit:10;}.cls-2{font-size:33.12px;font-family:Carlsberg;}.cls-4{fill:none;}.cls-5{fill:#006a38;stroke:#fff;}</style></defs><path class="cls-1" d="M120.38,303.12c2.85-2,18.48-11.93,18.48-11.93s12.5-7,15.76-9.21,14.14-8.68,17.4-9.22,22.28-6.51,22.28-6.51L212.24,263,225,261.37s5.44-1.62,7.34-1.62h33.16l12.23,1.9,13.31,1.62,10.33,2.17s11.14,2.44,12.23,2.44,11.42,2.44,12.78,3.25,11.95,2.86,15.49,4.55,13,5.48,15.76,5.76,11.41,3.25,14.67,4.06,11.15,3.8,14.68,4.61,9,3,12,3.52,6.79,2.17,9,2.72,7.61.81,9,1.35a77.61,77.61,0,0,0,7.61,1.9c1.35.27,12.5,1.35,12.5,1.35s8.15,0,11.95.28,11.69,0,13.59-.55,4.08,0,7.61-1.62.82,0,3.54-1.63l6.79-4.07a24.55,24.55,0,0,0,4.62-3.25c1.63-1.63,5.44-5.42,5.71-6.23s3.53-6.51,3.53-6.51l2.18-6.78v-8.4s.54-11.12,6-2.44c-.54,1.62-.54,8.13-1.08,9.49A110.51,110.51,0,0,0,499,280.89a49,49,0,0,1-3.26,9.49c-1.09,1.9-7.61,7.59-8.43,8.41s-10.59,7-10.59,7L467,309.49l-11.14,2.58H426.4s-5.17.81-8.43,0-15.76-3-15.76-3l-18.75-3.53-19.57-4.06-18.75-4.07s-6.52-1.08-10.87-2.17-22.83-3.52-22.83-3.52l-18.21-1.36s-15.49-1.08-16.58-1.08-17.94.54-17.94.54-12.5,1.35-13.31,1.63-8.16,2.16-8.16,2.16-6,1.63-8.69,2.72-13.05,3.25-14.41,4.06-10.32,5.42-11.41,6-10.33,6.05-10.33,6.05l-11.14,7.23-5.71,5.42a16.11,16.11,0,0,0-2.31,1.36c-.41.4-3.67-1.9-3.67-1.9l-6-5.56s-6.25-5.42-7.06-6-7.54-2.64-7.54-2.64l-7.75-3.05-9.17-.82-10-.4s-1,.07-1.29.13S117.59,305.08,120.38,303.12Z" transform="translate(0 0)"/><g id="text"><path class="cls-1" d="M75.4,130.77c1.75,0,2.62,1.55,2.62,4.67l-4,7.72q14.68,23.6,14.69,35.74v12.38Q88.75,210,70,230.13q-9.21,6.54-29.43,7.79-22.2,0-37.42-34.18L.5,188.23v-4.67q0-31.8,24.07-52.79ZM17.87,197.51q7.5,28,25.41,28H54q15.77,0,22.68-31.07v-6.17q0-25.33-29.38-32.62H44.62Q17.88,155.61,17.87,197.51Z" transform="translate(0 0)"/><path class="cls-1" d="M91.32,130.15h15.55l2.57,3v60.08q0,22.53,11.69,22.54h15.49q3,0,5.2-10.53,6.81,0,7.77,15.07v1.49l-6.48,7.54H91.32l-2.57-3,5.2-6V145.21q0-5.42-5.2-12Z" transform="translate(0 0)"/><path class="cls-1" d="M194.84,125.54h2.74q34.3,0,34.31,57.34V197.2q-6,41.4-35.65,41.4H172.92l-13.73-1.55v-3.18q4.13,0,4.13-3.17V149.45h-1.39q-9.6,3.86-9.6,9.58h-2.74Q158.33,125.53,194.84,125.54Zm-13.72,22.29V225.9h5.52q22.41,0,28.79-35.05v-9.53q-4.73-33.49-24.71-33.49Z" transform="translate(0 0)"/><path class="cls-1" d="M284.54,129.21H326l2.68,3.11-8,20.18-18.71-6.23q-10.68,0-10.67,14,0,10.14,26.7,27.95a30.46,30.46,0,0,1,5.36,17.06v1.56q-1.77,15.19-16,28H259.12v-1.55q5.37-8.34,5.37-14l-2.69-10.83h1.34Q272,220.8,288.56,220.8q14.69-5.61,14.69-18.62,0-11.27-32.12-35.74a51.26,51.26,0,0,1-4-18.61Q267.17,131.71,284.54,129.21Z" transform="translate(0 0)"/><path class="cls-1" d="M338,129.21q13.35,5.41,13.35,12.39h1.34q0-10.83,16-12.39,21.39,6.22,21.39,23.29v9.34q0,24.58-13.35,31l-5.36,1.56h-5.36l-13.35-6.17V227l4,6.23v1.55H339.38l-2.68-3.11V147.83q0-3.06-8-6.23V140Q328.66,133.14,338,129.21Zm14.69,26.4v10.83q0,12.47,9.33,12.46h2.68q12.06,0,12.06-17.06,0-20.24-14.74-20.24Q352.73,145.16,352.73,155.61Z" transform="translate(0 0)"/><path class="cls-1" d="M415.24,127.59l18.44,3,13.19-3v1.56q-5,12.27-21.12,12.26V221l6.59,1.56A19.88,19.88,0,0,0,445.53,218l1.34,1.56V221q-7.08,12.27-19.78,12.27L406,231.75l-15.82,3.12v-1.56q3.33-7.67,18.44-13.76V139.86h-1.28l-17.16,3v-1.5Q399.53,127.59,415.24,127.59Z" transform="translate(0 0)"/><path class="cls-1" d="M471.64,130h57.85l1.12,1.31L510.24,162q-7.56-7-14.9-7h-2.2q-21.08,0-28.09,33.24v3.86q0,25.22,24.23,37.73a23.27,23.27,0,0,0,9.38,1.93h3.86q11.85,0,23.7-11.51l1.61,1.93v1.24q-14.05,17.25-34.69,17.25-27,0-42.41-33.25a67.64,67.64,0,0,1-3.86-22.35v-1.93q0-28.08,22.57-52.49Z" transform="translate(0 0)"/><path class="cls-1" d="M534.74,128.78h74l2.73,3.17v1.56Q598.92,155.23,593.72,159q-11.33-8-19.25-8-16.41,5.73-16.41,11.15v14.32l20.54,1.56,9.59-3.18v1.62q0,7.47-17.8,12.7H558.06V210q0,11.14,9.6,11.15h16.46q8.21,0,8.2-9.53,8.2,3.73,8.2,11.15-3,14.31-6.8,14.32H537.48l-2.74-3.18q5.47-5.61,5.47-11.14v-33.5l-9.6,1.62v-1.62q4.14-7.9,9.6-7.91V147.83q0-9-5.47-14.32Z" transform="translate(0 0)"/></g><text class="cls-2" transform="translate(17.87 101.18)"><tspan xml:space="preserve">Pure Sport Scent  High Endurance</tspan></text><g id="leaf"><path class="cls-3" d="M533.63,17.14a6,6,0,0,1-5.32-3.57C524,4.85,518.87-.2,514.76,1.15c-3.92,1.28-6,8.08-6,17.42a7.2,7.2,0,0,1-3.21,6.2,33.64,33.64,0,0,0-6,4.65,5.51,5.51,0,0,1-8.54-.74l-.07-.1a8.07,8.07,0,0,1-1.13-7c2.88-9.48,2.86-17.28-.7-20-3.38-2.62-9.18,0-15.28,6.05a5.46,5.46,0,0,1-6.22,1.17c-9.38-4.3-16.88-3.15-20.1,2.46s-1.24,14.09,5.78,22.49a7.89,7.89,0,0,1,1.47,7.11c-2.49,8.88-2.3,16.1,1.08,18.72,3.56,2.75,9.77-.23,16.19-7A5.48,5.48,0,0,1,478,51l.77.28c3,1.09,4.79,4.74,4.07,8.32a64.12,64.12,0,0,0-1,7.49,7.11,7.11,0,0,1-3.54,5.81c-7.87,4.22-12.66,9.68-11.88,14.55.74,4.65,6.38,7.68,14.39,8.51a6.27,6.27,0,0,1,5.06,4.36c3.89,10.8,9.83,16.25,15.53,15s9.57-8.8,9.85-20.5a7.24,7.24,0,0,1,3.37-6.18c7.22-4.13,11.54-9.31,10.8-14-.79-4.88-6.95-8-15.6-8.62a6.15,6.15,0,0,1-5.1-3.93C502.5,57,500,52.73,497.33,50l.1-.15,0,0c3.25,2.89,8.46,4.35,15.07,3.86A5.88,5.88,0,0,1,518.11,57c4.19,8,9,12.51,12.95,11.22,4.11-1.35,6.2-8.76,6-18.81A7.45,7.45,0,0,1,540,43.14c8-5.65,13.15-12.5,11.84-17.92S543,17.11,533.63,17.14Z" transform="translate(0 0)"/><path class="cls-4" d="M533.63,17.14a6,6,0,0,1-5.32-3.57C524,4.85,518.87-.2,514.76,1.15c-3.92,1.28-6,8.08-6,17.42a7.2,7.2,0,0,1-3.21,6.2,33.64,33.64,0,0,0-6,4.65,5.51,5.51,0,0,1-8.54-.74l-.07-.1a8.07,8.07,0,0,1-1.13-7c2.88-9.48,2.86-17.28-.7-20-3.38-2.62-9.18,0-15.28,6.05a5.46,5.46,0,0,1-6.22,1.17c-9.38-4.3-16.88-3.15-20.1,2.46s-1.24,14.09,5.78,22.49a7.89,7.89,0,0,1,1.47,7.11c-2.49,8.88-2.3,16.1,1.08,18.72,3.56,2.75,9.77-.23,16.19-7A5.48,5.48,0,0,1,478,51l.77.28c3,1.09,4.79,4.74,4.07,8.32a64.12,64.12,0,0,0-1,7.49,7.11,7.11,0,0,1-3.54,5.81c-7.87,4.22-12.66,9.68-11.88,14.55.74,4.65,6.38,7.68,14.39,8.51a6.27,6.27,0,0,1,5.06,4.36c3.89,10.8,9.83,16.25,15.53,15s9.57-8.8,9.85-20.5a7.24,7.24,0,0,1,3.37-6.18c7.22-4.13,11.54-9.31,10.8-14-.79-4.88-6.95-8-15.6-8.62a6.15,6.15,0,0,1-5.1-3.93C502.5,57,500,52.73,497.33,50l.1-.15,0,0c3.25,2.89,8.46,4.35,15.07,3.86A5.88,5.88,0,0,1,518.11,57c4.19,8,9,12.51,12.95,11.22,4.11-1.35,6.2-8.76,6-18.81A7.45,7.45,0,0,1,540,43.14c8-5.65,13.15-12.5,11.84-17.92S543,17.11,533.63,17.14Z" transform="translate(0 0)"/></g><g id="ship"><path class="cls-5" d="M164.18,295.19c.29-1.88.62-3.64,1-5.38.44-2.16,1-4.3,1.53-6.43.11-.38.24-.59.69-.63.73-.07,1.44-.21,2.17-.21s.37-.43.4-.71c.05-.44-.27-.33-.49-.31a7.23,7.23,0,0,0-2.37.65,3.76,3.76,0,0,1,.26-1.12c.29-.94.63-1.88.89-2.83a1,1,0,0,1,1-.85c.75-.09.75-.11.75-.87a3.1,3.1,0,0,1,0-.43c0-.14,0-.28.22-.3s.23.14.23.28c0,.3,0,.61,0,.9s.1.36.37.39c2.18.22,1.58-.17,2.29,1.84a15.69,15.69,0,0,1,.77,2.81,11,11,0,0,0-2.79-.5.58.58,0,0,0-.56.88c.08.17.23.13.37.13a14,14,0,0,1,2.32.27c.91.2.92.2,1,1.12a41,41,0,0,0,1.3,6.92,14.54,14.54,0,0,0,.91,2.49,1.5,1.5,0,0,1-.08,1.31c-.12.32-.3.08-.41,0a10.16,10.16,0,0,0-3.77-1.39c-1.57-.25-1.57-.26-1.56,1.29,0,.7,0,.72.72.74a26.18,26.18,0,0,1,2.64.25.76.76,0,0,1,.76.81,37.92,37.92,0,0,0,1.9,8.68.52.52,0,0,0,.58.45c1.36,0,2.7,0,4.05.06.47,0,.64-.17.62-.62s0-.95,0-1.43-.11-.47-.46-.46a12.53,12.53,0,0,0-4.08.64c-.36.14-.45,0-.53-.3-.33-1.28-.68-2.56-.94-3.86a3.14,3.14,0,0,1,0-1.06,16.2,16.2,0,0,1,1.16-3.84.74.74,0,0,1,.64-.47,24.87,24.87,0,0,1,3.76-.3c.33,0,.44-.1.42-.43s0-.85,0-1.27-.11-.42-.44-.38a9,9,0,0,0-3.76,1.37c-.12.09-.24.25-.42.13s-.07-.25-.06-.39a76.82,76.82,0,0,1,1.9-11,.94.94,0,0,1,.87-.81,9.92,9.92,0,0,1,1.52-.21c.65,0,.45-.46.45-.77,0-.5-.37-.27-.57-.24-.58.1-1.14.26-1.72.38-.14-.2,0-.37.07-.55a29.29,29.29,0,0,1,1.37-3.95c.12-.26.25-.47.56-.49s.31-.21.31-.44c0-.83,0-1.67,0-2.5,0-.44.25-.59.56-.31,1.57,1.44,3.53,1.61,5.51,1.65.94,0,1.89,0,2.82,0s1.71.33,1.87,1.36a1.07,1.07,0,0,0,1,.89,5.18,5.18,0,0,1,1.69.42c.14.07.39.16.3.36s-.27,0-.4-.05a8.38,8.38,0,0,0-1.72-.3,1.2,1.2,0,0,1-1.11-.92c-.33-1-.64-1.22-1.7-1.22-1.45,0-2.91.12-4.37,0a6.84,6.84,0,0,1-3.76-1.27c0,.74,0,1.39,0,2.05,0,.21.21.14.34.14a12.83,12.83,0,0,1,1.74.18.58.58,0,0,1,.47.3,21.12,21.12,0,0,1,1.81,4.4c.1.32,0,.3-.29.25a17,17,0,0,0-3.63-.5c-.29,0-.49,0-.44.39s-.16.65.4.66a36.8,36.8,0,0,1,3.92.34.49.49,0,0,1,.48.43,68.71,68.71,0,0,1,1.59,11.06c0,.42,0,.57-.49.35a14.13,14.13,0,0,0-5.28-1.29c-.43,0-.56.11-.52.53s-.14,1.06.08,1.41.87.13,1.33.2c1.52.22,1.49.21,1.61,1.76a23.93,23.93,0,0,0,2.36,9.39.71.71,0,0,0,.83.47,9.87,9.87,0,0,1,1.22-.08c.24,0,.37-.07.37-.33l.06-5.83s0,0-.1-.09a10.57,10.57,0,0,0-.68,2.36,9.36,9.36,0,0,0-.17,2.69c0,.19.2.52-.18.54s-.72.25-.94-.29a32.91,32.91,0,0,1-1.4-4.28c-.14-.62-.22-1.26-.37-1.87-.09-.34,0-.48.34-.59a11.44,11.44,0,0,1,3-.68c.41,0,.54-.17.49-.54a1.47,1.47,0,0,1,0-.21c0-1,0-1-1-.81a7.75,7.75,0,0,0-2.62,1.13c-.31.2-.46.24-.48-.19-.06-1-.18-1.94-.16-2.91,0-.59,0-.6.61-.43a16.65,16.65,0,0,1,2.35,1,.72.72,0,0,0,.55.15c-.1-1.52-.19-3.06-.33-4.59-.08-.93-.21-1.86-.35-2.78,0-.29.06-.44.32-.5s.54-.15.82-.2a.76.76,0,0,0,.47-1c-.09-.17-.23-.13-.37-.11a3.83,3.83,0,0,0-1.24.31c-.27.13-.4.06-.33-.27a25.2,25.2,0,0,1,.94-3.26.69.69,0,0,1,.7-.45c.31,0,.38-.16.38-.44s0-.85,0-1.27c0-.24-.07-.59.26-.6s.27.35.28.58c0,.4,0,.81,0,1.22s0,.51.42.51a1.06,1.06,0,0,1,1,.8c.29.81.66,1.61,1,2.4a2.39,2.39,0,0,1,.21.91A8,8,0,0,0,192,285c-.31,0-.5,0-.45.38s-.22.73.39.73a12.38,12.38,0,0,1,2.18.21.5.5,0,0,1,.51.49,12.64,12.64,0,0,0,1.51,4.66c.14.26.07.4-.13.58l-3.69,3.2a1.07,1.07,0,0,0-.16.14c-.66.35-.7.43-.49,1.41,2.05-1.77,4.07-3.53,6.17-5.33.12,1,.21,1.93.41,2.83a27.27,27.27,0,0,0,3.44,8.68c.23.36.31.52-.24.59-2.84.4-5.7.74-8.55,1-.4,0-.53-.09-.51-.5a15.06,15.06,0,0,0-.43-5c-.07-.27-.17-.52-.25-.78a.7.7,0,0,1-.14,0V300c0,1.59,0,3.18,0,4.78,0,.43.16.48.53.45,2-.14,4-.33,6-.57.2,0,.55-.26.61.21.08.64,0,.85-.51,1a9.42,9.42,0,0,0-3.74,1.55,2.43,2.43,0,0,0-.68.58,1.91,1.91,0,0,1-1.67.79c-6.07.38-12.14.59-18.23.38-3.14-.11-6.27-.24-9.4-.43a.73.73,0,0,1-.64-.37,12.17,12.17,0,0,0-4.6-4.35c-3.71-2.06-7.42-4.14-11.12-6.21a.78.78,0,0,1-.18-.11c-.19-.14-.57-.19-.42-.51s.47-.14.68,0,.41.07.61-.1q4.44-3.65,8.89-7.25l6.14-5a2,2,0,0,0,.65-.82,1.18,1.18,0,0,1,1.19-.66c.34.05.18.28.15.44-.26,1.08-.55,2.16-.8,3.25a71.74,71.74,0,0,0-1.67,9.44,13.26,13.26,0,0,0,0,3,2.72,2.72,0,0,1-.3,1.32c-.07.25-.33.16-.51.17a6.56,6.56,0,0,0-3.74,1.16c-.11.08-.25.14-.3.34,1.38.61,2.77,1.23,4.19,1.76.39.14.32-.18.36-.34.47-1.87.93-3.77,1.39-5.66.18-.74.38-1.47.53-2.21a.57.57,0,0,1,.6-.53c1.2-.09,2.39-.24,3.61-.26.36,0,.51-.13.5-.5s0-.82,0-1.22-.14-.41-.44-.37a10.17,10.17,0,0,0-4.65,1.65A2.66,2.66,0,0,1,164.18,295.19Zm-.65-9.24a20.06,20.06,0,0,0-3,2.57,9.93,9.93,0,0,0-3,5.64.69.69,0,0,1-.27.44c-.48.45-1,.88-1.44,1.34a.66.66,0,0,1-.75.17,6.51,6.51,0,0,0-6,1.55c1.07.56,2.08,1.06,3.06,1.63a.73.73,0,0,0,1-.11c2.91-2.54,5.65-5.26,8.43-7.93a1.33,1.33,0,0,0,.28-.57c.5-1.38,1-2.75,1.49-4.13.09-.2.23-.39.13-.6h0Zm-2.45,6.92a3.44,3.44,0,0,0-.66,1,6.65,6.65,0,0,0-.44,3.84,1,1,0,0,1-1.22,1.14,6.62,6.62,0,0,0-5.3,1q2.08,1.08,4.14,2.17c.25.13.35,0,.47-.16a86.29,86.29,0,0,0,4.64-7.34,1.07,1.07,0,0,0,.22-.63,3.48,3.48,0,0,0-2,1c-.06.06-.1.2-.24.1s0-.15,0-.24c.06-.25.13-.49.22-.75A2.33,2.33,0,0,0,161.08,292.87Zm2.72,11.7a17.72,17.72,0,0,0,5.56.79c.23,0,.24-.16.24-.33,0-.46,0-.92,0-1.38,0-1.41,0-1.43-1.38-1.21A8.5,8.5,0,0,0,163.8,304.57Zm12.11.83a.63.63,0,0,0,0-.14,7.12,7.12,0,0,0-4.8-2.92c-.33,0-.39.09-.38.38,0,.74,0,1.48,0,2.21,0,.36.11.46.45.46,1.11,0,2.23,0,3.34,0Zm12,.11a6.89,6.89,0,0,0-4.63-2.47c-.26,0-.25.13-.25.3,0,.62,0,1.24,0,1.86,0,.28.12.32.35.32C184.81,305.5,186.27,305.51,187.88,305.51Z" transform="translate(0 0)"/><path class="cls-5" d="M176.61,291.6a44.43,44.43,0,0,1-1.41-6.17,1.43,1.43,0,0,1,0-.58,10.86,10.86,0,0,0,.33-1.11,2.37,2.37,0,0,1,2.51-2c.4,0,.46.05.38.41-.45,1.81-.8,3.65-1.12,5.49-.18,1.06-.33,2.12-.5,3.18A1.26,1.26,0,0,1,176.61,291.6Z" transform="translate(0 0)"/><path class="cls-5" d="M177.46,280.57a29.84,29.84,0,0,1,1.43-3.25c.14-.28.31-.55.46-.83s.49-.31.79-.33.16.12.12.25c-.43,1.25-.85,2.51-1.26,3.77a.25.25,0,0,1-.22.19Z" transform="translate(0 0)"/><path class="cls-5" d="M165.11,282.17c.53-1.29,1-2.49,1.63-3.65a.53.53,0,0,1,.34-.3c.11,0,.26-.08.35,0s0,.22,0,.33c-.32,1-.65,2.05-1,3.08-.07.21-.13.33-.38.35A7.45,7.45,0,0,0,165.11,282.17Z" transform="translate(0 0)"/></g></svg>