<svg xmlns="http://www.w3.org/2000/svg" viewBox="0 0 542.65 577.81"><defs><style>.cls-1{fill:#016a38;}.cls-2,.cls-3{fill:#fff;}.cls-3{font-size:31.66px;font-family:Carlsberg;}</style></defs><g id="background_test" data-name="background test"><rect class="cls-1" width="542.65" height="577.81"/></g><g id="shape"><path class="cls-2" d="M132,424.68c2.06-1.91,13.37-11.4,13.37-11.4s9-6.74,11.4-8.81,10.23-8.3,12.59-8.82,16.12-6.21,16.12-6.21l13-3.11,9.24-1.56s3.93-1.55,5.31-1.55h24l8.85,1.81,9.63,1.55,7.48,2.08S271,391,271.76,391s8.26,2.33,9.24,3.11,8.65,2.73,11.21,4.35,9.44,5.24,11.4,5.5,8.26,3.11,10.62,3.88,8.06,3.63,10.62,4.41,6.49,2.85,8.65,3.37,4.91,2.07,6.49,2.59,5.5.78,6.49,1.29a45.36,45.36,0,0,0,5.5,1.82c1,.26,9,1.29,9,1.29s5.89,0,8.65.26,8.45,0,9.83-.51,2.95,0,5.5-1.56.59,0,2.56-1.55l4.91-3.89a18.91,18.91,0,0,0,3.35-3.11c1.18-1.56,3.93-5.18,4.12-6s2.56-6.22,2.56-6.22l1.57-6.48v-8s.4-10.63,4.33-2.33c-.39,1.55-.39,7.77-.79,9.07s-1.77,10.36-1.77,11.14a57.8,57.8,0,0,1-2.36,9.07c-.78,1.81-5.5,7.25-6.09,8s-7.67,6.74-7.67,6.74l-7,3.5-8.06,2.46H353.36s-3.74.78-6.1,0-11.4-2.85-11.4-2.85L322.29,427l-14.15-3.89-13.57-3.88s-4.72-1-7.86-2.08-16.52-3.37-16.52-3.37L257,412.5s-11.21-1-12-1-13,.52-13,.52-9.05,1.3-9.64,1.55-5.9,2.08-5.9,2.08-4.32,1.55-6.29,2.59-9.43,3.11-10.42,3.89-7.47,5.18-8.26,5.7-7.47,5.78-7.47,5.78L176,440.48l-4.13,5.19a11.54,11.54,0,0,0-1.67,1.29c-.29.39-2.65-1.81-2.65-1.81l-4.33-5.31s-4.52-5.19-5.11-5.77-5.46-2.53-5.46-2.53l-5.6-2.91-6.63-.78-7.23-.39s-.69.07-.93.13S130,426.55,132,424.68Z"/></g><g id="logo_text" data-name="logo text"><path class="cls-2" d="M99.43,259.93c1.26,0,1.9,1.49,1.9,4.46l-2.87,7.38q10.62,22.56,10.62,34.16v11.85q0,17.85-13.53,37.13-6.67,6.25-21.3,7.44-16.05,0-27.07-32.67l-1.94-14.82V310.4q0-30.42,17.42-50.47Zm-41.62,63.8q5.43,26.72,18.38,26.72H84q11.4,0,16.41-29.7v-5.89q0-24.23-21.26-31.18H77.16Q57.81,283.68,57.81,323.73Z"/><path class="cls-2" d="M111,259.34h11.24l1.87,2.91v57.43q0,21.54,8.45,21.54h11.21q2.13,0,3.76-10.05,4.92,0,5.63,14.4V347l-4.7,7.2H111l-1.87-2.92,3.77-5.71V273.74q0-5.17-3.77-11.49Z"/><path class="cls-2" d="M185.84,254.93h2q24.83,0,24.82,54.81v13.69Q208.29,363,186.85,363H170l-9.93-1.48v-3q3,0,3-3V277.78h-1q-6.94,3.69-6.95,9.17h-2Q159.42,254.93,185.84,254.93Zm-9.93,21.31v74.62h4q16.2,0,20.82-33.5v-9.11q-3.4-32-17.88-32Z"/><path class="cls-2" d="M250.73,258.44h30l1.94,3-5.82,19.28-13.54-5.95q-7.71,0-7.71,13.39,0,9.71,19.31,26.72a35.86,35.86,0,0,1,3.88,16.31v1.48q-1.27,14.52-11.6,26.72H232.34v-1.48q3.89-8,3.88-13.39l-1.94-10.36h1Q241.69,346,253.64,346q10.62-5.36,10.62-17.79,0-10.77-23.23-34.16a62.84,62.84,0,0,1-2.87-17.79Q238.16,260.82,250.73,258.44Z"/><path class="cls-2" d="M289.44,258.44q9.65,5.18,9.65,11.85h1q0-10.37,11.6-11.85,15.48,6,15.47,22.26v8.93q0,23.5-9.65,29.63l-3.88,1.49h-3.88l-9.66-5.89v37.08l2.91,5.95v1.48H290.41l-1.94-3V276.24q0-2.92-5.82-5.95V268.8Q282.65,262.18,289.44,258.44Zm10.62,25.24V294q0,11.91,6.75,11.9h1.94q8.73,0,8.73-16.3,0-19.35-10.67-19.34Q300.06,273.68,300.06,283.68Z"/><path class="cls-2" d="M345.29,256.9l13.34,2.91,9.54-2.91v1.48q-3.6,11.73-15.28,11.73v76.11l4.77,1.49a12.46,12.46,0,0,0,9.54-4.4l1,1.48v1.43Q363.05,358,353.86,358l-15.28-1.49-11.45,3V358q2.42-7.32,13.35-13.16V268.62h-.93l-12.42,2.92v-1.43Q333.93,256.9,345.29,256.9Z"/><path class="cls-2" d="M386.09,259.22h41.85l.81,1.25L414,289.81q-5.46-6.74-10.78-6.73h-1.59q-15.24,0-20.32,31.78v3.69q0,24.1,17.53,36.06a13.47,13.47,0,0,0,6.79,1.85h2.79q8.56,0,17.14-11l1.17,1.84v1.19Q416.57,365,401.64,365q-19.51,0-30.68-31.78a83.53,83.53,0,0,1-2.79-21.37V310q0-26.84,16.33-50.17Z"/><path class="cls-2" d="M431.74,258H485.3l2,3v1.49q-9.12,20.77-12.88,24.4-8.17-7.62-13.92-7.62-11.87,5.48-11.87,10.65v13.69l14.86,1.49,6.94-3v1.55q0,7.14-12.88,12.14h-8.92v19.82q0,10.65,6.94,10.65h11.91q5.94,0,5.93-9.1a11.64,11.64,0,0,1,5.94,10.65q-2.22,13.68-4.93,13.69H433.72l-2-3q4-5.36,4-10.65v-32l-6.95,1.55v-1.55q3-7.56,6.95-7.56v-32q0-8.64-4-13.69Z"/><text class="cls-3" transform="translate(57.81 231.65) scale(0.76 1)"><tspan xml:space="preserve">Pure Sport Scent  High Endurance</tspan></text><text class="cls-3" transform="translate(293.98 518.14) scale(0.76 1)">Old Spice Deodorant</text></g><g id="leaf"><g id="leaf-2" data-name="leaf"><path class="cls-2" d="M432.32,150.87c-1.59,0-3.05-1.3-3.85-3.41-3.13-8.33-6.83-13.15-9.81-11.87s-4.34,7.73-4.33,16.66a7.68,7.68,0,0,1-2.32,5.92,26.49,26.49,0,0,0-4.36,4.45c-1.84,2.4-4.61,2.1-6.18-.72l-.05-.09a9.76,9.76,0,0,1-.82-6.72c2.09-9.06,2.07-16.52-.5-19.15s-6.65,0-11.06,5.79a3.28,3.28,0,0,1-4.5,1.11c-6.79-4.1-12.21-3-14.54,2.36s-.9,13.47,4.18,21.49a9.55,9.55,0,0,1,1.07,6.8c-1.8,8.49-1.67,15.39.78,17.89s7.06-.21,11.71-6.66c1.17-1.63,2.81-2.2,4.31-1.45l.56.27c2.18,1,3.46,4.53,2.94,8-.33,2.2-.57,4.61-.72,7.16a7.33,7.33,0,0,1-2.56,5.56c-5.69,4-9.16,9.24-8.6,13.9.54,4.45,4.62,7.34,10.42,8.13,1.63.23,3,1.86,3.65,4.18,2.82,10.32,7.11,15.53,11.24,14.35s6.92-8.41,7.13-19.59c0-2.51,1-4.81,2.43-5.92,5.22-3.94,8.35-8.89,7.81-13.33-.56-4.66-5-7.62-11.28-8.23-1.58-.16-3-1.58-3.69-3.77a43.39,43.39,0,0,0-5.32-11.65l.07-.15v0c2.35,2.77,6.13,4.16,10.9,3.7,1.63-.16,3.2,1,4,3.18,3,7.62,6.53,12,9.37,10.72s4.48-8.37,4.31-18a8.13,8.13,0,0,1,2.12-6c5.77-5.4,9.51-11.95,8.56-17.13S439.07,150.85,432.32,150.87Z"/></g></g><g id="Layer_5" data-name="Layer 5"><g id="ship"><path class="cls-1" d="M163.66,417.09c.21-1.8.44-3.47.7-5.14.31-2.07.69-4.11,1.11-6.15.07-.36.17-.55.5-.6a11.89,11.89,0,0,1,1.56-.2c.42,0,.27-.4.29-.68s-.19-.31-.35-.29a4.26,4.26,0,0,0-1.72.62,4.75,4.75,0,0,1,.19-1.07c.21-.9.46-1.8.64-2.71.11-.56.37-.75.76-.81.55-.08.55-.1.55-.83v-.41c0-.13,0-.27.16-.28s.17.13.17.26a8.22,8.22,0,0,1,0,.86c0,.27.07.35.27.37,1.57.21,1.14-.16,1.66,1.76a18.41,18.41,0,0,1,.55,2.68,6.45,6.45,0,0,0-2-.47c-.37,0-.57.39-.41.84.06.16.17.12.27.12a8.15,8.15,0,0,1,1.68.26c.65.2.66.2.73,1.07a50.48,50.48,0,0,0,.94,6.62,16.53,16.53,0,0,0,.65,2.37,1.86,1.86,0,0,1-.05,1.26c-.09.31-.22.07-.3,0a6.44,6.44,0,0,0-2.73-1.33c-1.13-.24-1.13-.25-1.12,1.23,0,.67,0,.69.51.71a12.33,12.33,0,0,1,1.91.25c.36.07.53.25.56.77a45.69,45.69,0,0,0,1.37,8.29c.08.31.18.44.42.44,1,0,1.95,0,2.93.05.34,0,.46-.17.45-.59s0-.92,0-1.37-.08-.45-.34-.44a7.09,7.09,0,0,0-2.95.61c-.26.13-.32,0-.38-.28-.24-1.23-.49-2.45-.68-3.7a4.17,4.17,0,0,1,0-1,19.49,19.49,0,0,1,.84-3.68c.1-.27.24-.41.47-.44a13.82,13.82,0,0,1,2.72-.3c.23,0,.31-.09.3-.4s0-.82,0-1.22-.07-.4-.31-.36a5.48,5.48,0,0,0-2.72,1.31c-.09.08-.18.23-.31.12s0-.24,0-.37a96.25,96.25,0,0,1,1.37-10.48c.1-.49.27-.7.63-.77a5.4,5.4,0,0,1,1.11-.2c.47,0,.32-.44.32-.74,0-.48-.27-.26-.42-.23-.41.09-.82.25-1.24.37-.1-.19,0-.36.05-.53a33.09,33.09,0,0,1,1-3.77c.09-.26.19-.45.41-.47s.22-.2.22-.43c0-.79,0-1.59,0-2.38,0-.43.18-.57.4-.3a4.85,4.85,0,0,0,4,1.58c.68,0,1.36,0,2,0a1.27,1.27,0,0,1,1.35,1.29.91.91,0,0,0,.72.86,3,3,0,0,1,1.22.39c.11.07.29.16.22.35s-.19,0-.28,0a5.06,5.06,0,0,0-1.25-.3c-.43-.06-.67-.34-.8-.87-.24-.94-.47-1.17-1.24-1.17-1,0-2.1.12-3.15,0a4.26,4.26,0,0,1-2.73-1.21c0,.71,0,1.33,0,2,0,.21.15.14.25.14a7.93,7.93,0,0,1,1.26.17.46.46,0,0,1,.34.28,25,25,0,0,1,1.31,4.22c.07.3,0,.28-.21.23a9.84,9.84,0,0,0-2.63-.48c-.21,0-.35,0-.32.38s-.12.62.29.63a20.92,20.92,0,0,1,2.84.32c.22,0,.3.16.34.42a86.12,86.12,0,0,1,1.16,10.56c0,.41,0,.55-.36.34a8.27,8.27,0,0,0-3.82-1.23c-.31,0-.41.1-.37.51a4.82,4.82,0,0,0,.05,1.34c.17.36.63.13,1,.19,1.1.22,1.08.2,1.17,1.69a29.13,29.13,0,0,0,1.7,9c.14.36.31.51.61.45a6.4,6.4,0,0,1,.88-.07c.17,0,.26-.08.26-.32l0-5.57s0,0-.07-.09a12.48,12.48,0,0,0-.49,2.26,11.61,11.61,0,0,0-.13,2.57c0,.18.15.5-.13.52s-.52.23-.67-.29a37,37,0,0,1-1-4.09c-.1-.59-.16-1.2-.27-1.79-.06-.32,0-.45.25-.55a6.26,6.26,0,0,1,2.2-.65c.29,0,.39-.17.35-.52a1.34,1.34,0,0,1,0-.2c0-1,0-1-.75-.78a5.11,5.11,0,0,0-1.9,1.08c-.22.19-.33.23-.34-.18,0-.93-.13-1.85-.12-2.78,0-.56,0-.57.44-.41a10.08,10.08,0,0,1,1.7.93c.11.08.21.21.4.15-.07-1.45-.14-2.93-.24-4.39-.06-.89-.15-1.77-.25-2.66,0-.27,0-.41.23-.47s.39-.15.59-.2.48-.62.34-1c-.06-.16-.17-.12-.27-.1a2.22,2.22,0,0,0-.89.29c-.2.12-.29.06-.24-.25.19-1.06.39-2.1.68-3.12a.52.52,0,0,1,.51-.44c.22,0,.27-.15.27-.41,0-.41,0-.81,0-1.22,0-.22,0-.56.19-.57s.2.34.2.55c0,.39,0,.78,0,1.17s0,.48.31.48.61.3.75.78c.22.77.48,1.53.71,2.29a2.54,2.54,0,0,1,.15.86,4.84,4.84,0,0,0-1.58-.43c-.22,0-.36,0-.32.36s-.16.69.28.69a7.77,7.77,0,0,1,1.58.2c.22.05.33.15.37.47a14.59,14.59,0,0,0,1.09,4.46.48.48,0,0,1-.09.56c-.9,1-1.78,2-2.68,3.05l-.11.13c-.48.34-.5.42-.36,1.35,1.49-1.69,2.95-3.37,4.47-5.09.09,1,.16,1.85.29,2.71a31.53,31.53,0,0,0,2.5,8.29c.16.35.22.5-.18.57-2.05.37-4.12.7-6.18.93-.29,0-.39-.09-.37-.47a19.08,19.08,0,0,0-.31-4.78c-.05-.26-.12-.5-.18-.75l-.1,0v1.69c0,1.52,0,3,0,4.57,0,.41.12.45.39.43,1.44-.14,2.88-.31,4.32-.54.15,0,.4-.26.45.2.05.61,0,.81-.37.9a6.26,6.26,0,0,0-2.71,1.48,2.17,2.17,0,0,0-.49.56,1.29,1.29,0,0,1-1.2.75,102.07,102.07,0,0,1-13.2.37c-2.27-.1-4.53-.23-6.8-.42a.5.5,0,0,1-.46-.34,10.38,10.38,0,0,0-3.33-4.16c-2.68-2-5.36-4-8-5.94a.71.71,0,0,1-.14-.1c-.13-.14-.4-.19-.3-.49s.34-.13.5,0,.29.06.44-.1c2.14-2.32,4.29-4.62,6.43-6.93l4.44-4.77a1.9,1.9,0,0,0,.47-.78.86.86,0,0,1,.86-.64c.25.05.13.28.11.43-.18,1-.4,2.06-.58,3.11a89.7,89.7,0,0,0-1.21,9,16.3,16.3,0,0,0,0,2.88,3.57,3.57,0,0,1-.22,1.27c-.05.23-.24.15-.37.16a4,4,0,0,0-2.71,1.11.47.47,0,0,0-.21.32c1,.58,2,1.18,3,1.69.28.13.23-.17.26-.33.34-1.79.67-3.6,1-5.41.13-.71.28-1.41.39-2.12.05-.34.17-.46.43-.49.87-.1,1.73-.24,2.61-.26.26,0,.37-.12.36-.48a11.23,11.23,0,0,1,0-1.16c0-.35-.1-.4-.32-.36a6.21,6.21,0,0,0-3.36,1.59A2.12,2.12,0,0,1,163.66,417.09Zm-.47-8.83a16,16,0,0,0-2.14,2.46,10.66,10.66,0,0,0-2.2,5.39.68.68,0,0,1-.19.42c-.35.43-.7.85-1,1.28a.41.41,0,0,1-.55.16c-1.62-.56-3,.13-4.3,1.49.78.53,1.51,1,2.22,1.55.29.22.48.19.73-.1,2.1-2.43,4.08-5,6.09-7.59a1.78,1.78,0,0,0,.21-.53c.36-1.32.72-2.63,1.07-4a.85.85,0,0,0,.1-.58h0Zm-1.77,6.62a3.49,3.49,0,0,0-.48,1,8.29,8.29,0,0,0-.32,3.68c.07.65-.42,1.26-.88,1.08a3.91,3.91,0,0,0-3.84,1l3,2.07c.17.12.25,0,.34-.15,1.16-2.31,2.37-4.57,3.35-7a1.4,1.4,0,0,0,.17-.6,2.28,2.28,0,0,0-1.47.95c0,.05-.08.19-.18.09s0-.14,0-.22c0-.25.1-.48.16-.73A3,3,0,0,0,161.42,414.88Zm2,11.18a9.88,9.88,0,0,0,4,.75c.16,0,.17-.15.17-.31v-1.32c0-1.35,0-1.37-1-1.16A5.77,5.77,0,0,0,163.38,426.06Zm8.76.8a.59.59,0,0,0,0-.14,5.16,5.16,0,0,0-3.47-2.79c-.24,0-.28.08-.28.36,0,.71,0,1.42,0,2.12,0,.33.07.44.32.44.81,0,1.62,0,2.42,0Zm8.66.1a4.78,4.78,0,0,0-3.35-2.36c-.18,0-.18.12-.18.29,0,.59,0,1.18,0,1.77,0,.27.09.31.26.31C178.58,427,179.64,427,180.8,427Z"/><path class="cls-1" d="M172.65,413.66a52.07,52.07,0,0,1-1-5.9,1.7,1.7,0,0,1,0-.55c.08-.35.18-.7.24-1.06.21-1.3.86-1.8,1.82-1.87.28,0,.33,0,.26.39-.32,1.73-.57,3.49-.8,5.24-.13,1-.24,2-.37,3A1.43,1.43,0,0,1,172.65,413.66Z"/><path class="cls-1" d="M173.26,403.12a32.17,32.17,0,0,1,1-3.1c.1-.28.22-.53.33-.8s.36-.3.57-.32.12.12.09.24c-.31,1.2-.61,2.4-.91,3.61a.22.22,0,0,1-.16.18Z"/><path class="cls-1" d="M164.33,404.65c.38-1.23.74-2.38,1.18-3.49a.45.45,0,0,1,.24-.29c.09,0,.19-.07.26,0s0,.21,0,.32c-.23,1-.47,2-.7,2.95-.05.19-.1.31-.28.33A4,4,0,0,0,164.33,404.65Z"/></g></g></svg>