<svg xmlns="http://www.w3.org/2000/svg" viewBox="0 0 613.97 792"><defs><style>.cls-1{fill:#016a38;}.cls-2,.cls-3{fill:#fff;}.cls-3{font-size:41px;font-family:Carlsberg;}</style></defs><g id="background_test" data-name="background test"><rect class="cls-1" width="613.97" height="792"/></g><g id="shape"><path class="cls-2" d="M148.33,593.73c2.33-2.47,15.13-14.76,15.13-14.76s10.23-8.73,12.9-11.41,11.57-10.74,14.24-11.41,18.24-8,18.24-8l14.68-4,10.45-2s4.45-2,6-2h27.14l10,2.35,10.9,2,8.45,2.68s9.12,3,10,3,9.35,3,10.46,4,9.79,3.54,12.68,5.63,10.68,6.78,12.9,7.12,9.34,4,12,5,9.12,4.7,12,5.71,7.34,3.69,9.78,4.36,5.57,2.68,7.35,3.35,6.22,1,7.34,1.68a47.37,47.37,0,0,0,6.23,2.35c1.11.33,10.23,1.68,10.23,1.68s6.67,0,9.79.33,9.56,0,11.12-.67,3.34,0,6.23-2,.66,0,2.89-2l5.56-5a22.38,22.38,0,0,0,3.78-4c1.34-2,4.45-6.71,4.67-7.72s2.9-8,2.9-8l1.78-8.39v-10.4s.44-13.76,4.89-3c-.45,2-.45,10.06-.89,11.74s-2,13.42-2,14.43A84.35,84.35,0,0,1,455.54,578c-.89,2.35-6.23,9.4-6.9,10.4s-8.67,8.73-8.67,8.73l-7.9,4.52L423,604.8H398.81s-4.22,1-6.89,0S379,601.11,379,601.11l-15.35-4.36-16-5-15.35-5s-5.34-1.34-8.9-2.68-18.69-4.36-18.69-4.36L289.81,578s-12.68-1.34-13.57-1.34-14.68.67-14.68.67-10.23,1.68-10.9,2S244,582,244,582a72.79,72.79,0,0,0-7.11,3.35c-2.23,1.34-10.68,4-11.79,5s-8.46,6.72-9.35,7.39-8.45,7.49-8.45,7.49l-9.12,9-4.67,6.71a13.21,13.21,0,0,0-1.89,1.67c-.34.51-3-2.34-3-2.34l-4.89-6.88s-5.12-6.71-5.78-7.47-6.18-3.27-6.18-3.27l-6.34-3.77-7.5-1-8.18-.5a9.85,9.85,0,0,0-1.06.16C148.39,597.59,146.05,596.15,148.33,593.73Z" transform="translate(0.99)"/></g><g id="logo_text" data-name="logo text"><path class="cls-2" d="M111.51,380.42q2.14,0,2.15,5.78l-3.25,9.56q12,29.21,12,44.23v15.33q0,23.12-15.31,48.08Q99.58,511.49,83,513q-18.16,0-30.63-42.3l-2.2-19.19v-5.78q0-39.36,19.71-65.34ZM64.42,463q6.15,34.61,20.8,34.6H94q12.9,0,18.56-38.45v-7.63q0-31.35-24-40.37H86.32Q64.42,411.17,64.42,463Z" transform="translate(0.99)"/><path class="cls-2" d="M124.54,379.65h12.73l2.1,3.78v74.35q0,27.9,9.57,27.9h12.68q2.41,0,4.26-13,5.56,0,6.36,18.64v1.85l-5.31,9.33H124.54l-2.11-3.78,4.26-7.4v-93q0-6.71-4.26-14.87Z" transform="translate(0.99)"/><path class="cls-2" d="M209.28,374h2.24q28.08,0,28.08,71v17.72q-4.9,51.24-29.18,51.24H191.33L180.1,512V508q3.38,0,3.38-3.93V403.54h-1.15q-7.85,4.79-7.85,11.87h-2.24Q179.4,373.95,209.28,374ZM198,401.54v96.62h4.52q18.34,0,23.57-43.38V443q-3.85-41.44-20.23-41.45Z" transform="translate(0.99)"/><path class="cls-2" d="M282.69,378.5h33.93l2.19,3.85-6.58,25-15.32-7.71q-8.73,0-8.73,17.34,0,12.56,21.85,34.59a52,52,0,0,1,4.39,21.12v1.92a65.7,65.7,0,0,1-13.12,34.6H261.89v-1.93q4.39-10.32,4.39-17.33l-2.19-13.41h1.1q7.28,15.33,20.8,15.33,12-6.93,12-23,0-13.94-26.29-44.22a92.23,92.23,0,0,1-3.24-23Q268.48,381.58,282.69,378.5Z" transform="translate(0.99)"/><path class="cls-2" d="M326.49,378.5q10.92,6.71,10.93,15.33h1.09q0-13.41,13.12-15.33,17.52,7.71,17.51,28.82v11.55q0,30.45-10.92,38.38l-4.39,1.92h-4.39l-10.93-7.63v48l3.29,7.7v1.93H327.59l-2.2-3.85V401.54q0-3.78-6.58-7.71v-1.92Q318.81,383.35,326.49,378.5Zm12,32.67v13.41q0,15.41,7.64,15.41h2.19q9.89,0,9.88-21.12,0-25-12.07-25Q338.52,398.23,338.51,411.17Z" transform="translate(0.99)"/><path class="cls-2" d="M389.68,376.49l15.1,3.78,10.79-3.78v1.93q-4.08,15.18-17.29,15.18v98.55l5.4,1.93q6.27,0,10.79-5.71l1.1,1.93v1.85q-5.79,15.18-16.19,15.18l-17.29-1.93-12.95,3.86v-1.93q2.73-9.48,15.1-17V391.67h-1.05l-14.05,3.78V393.6Q376.82,376.5,389.68,376.49Z" transform="translate(0.99)"/><path class="cls-2" d="M435.85,379.5H483.2l.92,1.62-16.68,38q-6.18-8.7-12.2-8.7h-1.8q-17.24,0-23,41.14v4.78q0,31.21,19.83,46.69A13.73,13.73,0,0,0,458,505.4h3.16q9.7,0,19.4-14.25l1.31,2.39v1.54q-11.49,21.34-28.39,21.34-22.06,0-34.71-41.14a123.3,123.3,0,0,1-3.16-27.67v-2.38a122.29,122.29,0,0,1,18.48-65Z" transform="translate(0.99)"/><path class="cls-2" d="M487.5,378h60.6l2.24,3.93v1.92q-10.32,26.9-14.57,31.6-9.27-9.87-15.76-9.87-13.42,7.09-13.43,13.8v17.72L523.39,439l7.86-3.93v2q0,9.24-14.57,15.72h-10.1v25.65q0,13.8,7.86,13.8h13.47q6.72,0,6.72-11.79,6.71,4.62,6.71,13.79Q538.83,512,535.77,512h-46L487.5,508A25.31,25.31,0,0,0,492,494.23V452.78l-7.85,2v-2Q487.5,443,492,443V401.54q0-11.18-4.47-17.73Z" transform="translate(0.99)"/><text class="cls-3" transform="translate(65.41 343.81) scale(0.66 1)"><tspan xml:space="preserve">Pure Sport Scent  High Endurance</tspan></text><text class="cls-3" transform="translate(332.62 714.74) scale(0.66 1)">Old Spice Deodorant</text></g><g id="leaf"><g id="leaf-2" data-name="leaf"><path class="cls-2" d="M487.49,242.17c-1.8,0-3.45-1.68-4.35-4.42-3.54-10.78-7.73-17-11.09-15.36s-4.92,10-4.9,21.56c0,3.21-1,6.17-2.63,7.67a33.12,33.12,0,0,0-4.94,5.75c-2.08,3.11-5.21,2.73-7-.92l-.06-.12a14.3,14.3,0,0,1-.92-8.69c2.36-11.74,2.34-21.4-.57-24.8-2.77-3.24-7.52,0-12.52,7.49-1.4,2.12-3.36,2.64-5.09,1.44-7.67-5.31-13.81-3.89-16.45,3s-1,17.44,4.74,27.83a13.89,13.89,0,0,1,1.2,8.81c-2,11-1.89,19.92.89,23.16,2.9,3.4,8-.28,13.25-8.63,1.32-2.1,3.18-2.85,4.88-1.87l.62.35c2.48,1.35,3.93,5.86,3.34,10.29-.38,2.85-.65,6-.82,9.27-.16,3.14-1.27,5.88-2.9,7.2-6.44,5.21-10.37,12-9.73,18,.61,5.75,5.23,9.5,11.79,10.53,1.84.29,3.42,2.4,4.13,5.4,3.19,13.37,8.05,20.11,12.72,18.58s7.83-10.88,8.06-25.37c.05-3.25,1.09-6.22,2.75-7.65,5.91-5.1,9.45-11.51,8.84-17.26-.64-6-5.68-9.87-12.76-10.66-1.79-.21-3.39-2.05-4.18-4.88-1.79-6.4-3.87-11.7-6-15.09a1.08,1.08,0,0,0,.08-.19v0c2.67,3.58,6.94,5.38,12.34,4.78,1.85-.21,3.62,1.35,4.58,4.12,3.43,9.86,7.39,15.47,10.6,13.88,3.36-1.66,5.07-10.84,4.88-23.28,0-3.16.86-6.12,2.39-7.76,6.53-7,10.77-15.47,9.69-22.17S495.14,242.14,487.49,242.17Z" transform="translate(0.99)"/></g></g><g id="Layer_5" data-name="Layer 5"><g id="ship"><path class="cls-1" d="M184.18,583.91c.24-2.33.51-4.5.79-6.65.36-2.68.79-5.33,1.26-8,.09-.47.19-.72.56-.77a12.23,12.23,0,0,1,1.77-.27c.48,0,.31-.52.33-.88.05-.53-.21-.4-.4-.38a4.64,4.64,0,0,0-1.94.81,6.13,6.13,0,0,1,.22-1.38c.23-1.17.51-2.33.72-3.51.12-.73.41-1,.86-1.06.61-.1.61-.13.61-1.07,0-.17,0-.36,0-.53s0-.35.19-.37.19.17.19.35c0,.36,0,.74,0,1.11s.08.45.29.48c1.79.27,1.3-.21,1.89,2.28a27.8,27.8,0,0,1,.62,3.47,6.7,6.7,0,0,0-2.28-.62c-.42,0-.64.52-.46,1.09.07.21.19.16.3.16a7.74,7.74,0,0,1,1.9.34c.74.25.75.25.83,1.38a73.48,73.48,0,0,0,1.06,8.57,24.73,24.73,0,0,0,.74,3.08,2.65,2.65,0,0,1-.06,1.63c-.09.39-.24.09-.34,0a6.71,6.71,0,0,0-3.08-1.72c-1.28-.32-1.28-.33-1.27,1.59,0,.86,0,.89.58.92a13.23,13.23,0,0,1,2.16.31c.4.09.59.33.63,1A67.78,67.78,0,0,0,194.41,596c.09.41.2.56.48.56,1.11,0,2.2,0,3.31.07.38,0,.52-.21.51-.76s0-1.19,0-1.78c0-.43-.09-.58-.38-.56a7.16,7.16,0,0,0-3.34.79c-.29.17-.36,0-.43-.37-.27-1.59-.56-3.17-.77-4.79a5.66,5.66,0,0,1,0-1.3,27.18,27.18,0,0,1,1-4.75c.11-.36.26-.54.52-.58a14,14,0,0,1,3.08-.38c.27,0,.35-.12.34-.53s0-1,0-1.58-.08-.51-.35-.46a6,6,0,0,0-3.08,1.7c-.1.1-.2.3-.35.16s-.05-.32,0-.49c.31-4.57.8-9.09,1.55-13.56.11-.63.31-.91.71-1a5.06,5.06,0,0,1,1.25-.26c.53,0,.37-.57.37-1,0-.62-.31-.33-.47-.29-.47.12-.94.31-1.41.47-.11-.25,0-.46.06-.68a48.29,48.29,0,0,1,1.12-4.89c.1-.33.21-.58.46-.61s.25-.26.25-.55c0-1,0-2.06,0-3.09,0-.55.2-.73.45-.38a5.09,5.09,0,0,0,4.52,2c.76,0,1.54,0,2.31,0s1.39.41,1.52,1.69a1.16,1.16,0,0,0,.82,1.1,3.22,3.22,0,0,1,1.39.51c.11.1.32.2.24.45s-.22,0-.32,0a4.77,4.77,0,0,0-1.41-.38c-.48-.08-.76-.45-.91-1.13-.27-1.23-.52-1.51-1.39-1.51-1.19,0-2.38.14-3.58,0a4.57,4.57,0,0,1-3.08-1.57c0,.92,0,1.72,0,2.53,0,.27.17.17.28.17a7.64,7.64,0,0,1,1.42.23.53.53,0,0,1,.39.37,34.89,34.89,0,0,1,1.48,5.45c.08.39,0,.37-.24.3a9.9,9.9,0,0,0-3-.62c-.24,0-.4,0-.36.49s-.13.8.33.82a19.35,19.35,0,0,1,3.2.42c.26.05.34.21.4.54a126,126,0,0,1,1.3,13.68c0,.52,0,.71-.4.43a8.56,8.56,0,0,0-4.32-1.59c-.36,0-.46.13-.43.66a6.82,6.82,0,0,0,.07,1.73c.19.47.71.17,1.08.25,1.25.28,1.22.26,1.32,2.18a42.57,42.57,0,0,0,1.93,11.62c.16.46.34.66.68.58a5.75,5.75,0,0,1,1-.09c.19,0,.29-.09.29-.41,0-2.41,0-4.81,0-7.22,0,0,0,0-.07-.11a17.84,17.84,0,0,0-.56,2.93,16.69,16.69,0,0,0-.14,3.32c0,.24.16.65-.15.67s-.59.3-.77-.37c-.44-1.73-.87-3.48-1.15-5.29-.11-.76-.18-1.55-.3-2.32-.07-.42,0-.59.28-.72a6.75,6.75,0,0,1,2.49-.84c.33,0,.44-.21.4-.67a2.26,2.26,0,0,1,0-.26c0-1.29,0-1.29-.85-1a5.63,5.63,0,0,0-2.15,1.39c-.25.25-.37.3-.39-.23-.05-1.2-.15-2.4-.13-3.61,0-.72,0-.73.5-.52a10.62,10.62,0,0,1,1.92,1.21c.13.09.24.26.46.18-.09-1.88-.16-3.78-.27-5.68-.07-1.15-.18-2.3-.29-3.44,0-.35,0-.54.26-.62s.44-.18.67-.25.54-.8.38-1.26c-.07-.21-.19-.16-.3-.13a2.32,2.32,0,0,0-1,.38c-.23.16-.33.08-.27-.33a41,41,0,0,1,.77-4c.1-.42.32-.55.57-.57s.31-.19.31-.54c0-.52,0-1.05,0-1.57,0-.29-.05-.73.22-.74s.22.44.23.71c0,.5,0,1,0,1.51s0,.63.35.63.68.38.84,1c.24,1,.54,2,.8,3a3.81,3.81,0,0,1,.18,1.12,5,5,0,0,0-1.79-.57c-.25,0-.41,0-.37.48s-.18.89.33.89a7.73,7.73,0,0,1,1.77.26c.26.06.39.19.42.61a21.93,21.93,0,0,0,1.24,5.77.67.67,0,0,1-.1.72c-1,1.32-2,2.64-3,4l-.13.17c-.54.43-.57.54-.4,1.75l5.05-6.6c.1,1.25.18,2.39.34,3.51a44.87,44.87,0,0,0,2.82,10.73c.18.45.25.65-.2.74-2.33.49-4.66.91-7,1.21-.33,0-.43-.12-.42-.62a27.81,27.81,0,0,0-.35-6.19c-.06-.33-.14-.64-.2-1l-.12,0v2.18c0,2,0,3.94,0,5.91,0,.54.13.6.44.57,1.63-.18,3.26-.41,4.89-.71.17,0,.46-.33.51.26.06.79,0,1.05-.42,1.17A6.87,6.87,0,0,0,209,599a2.89,2.89,0,0,0-.56.72,1.47,1.47,0,0,1-1.35,1,102.07,102.07,0,0,1-14.93.47c-2.57-.13-5.13-.3-7.7-.54-.23,0-.38-.12-.52-.45a13.23,13.23,0,0,0-3.76-5.38c-3-2.55-6.08-5.13-9.11-7.69l-.15-.13c-.14-.18-.46-.24-.34-.64s.39-.17.56,0,.33.08.5-.13q3.63-4.5,7.27-9l5-6.18a2.56,2.56,0,0,0,.53-1c.16-.55.6-.91,1-.83s.15.36.12.55c-.21,1.34-.45,2.67-.65,4-.57,3.87-1.15,7.73-1.37,11.69a23.24,23.24,0,0,0,0,3.73,5.21,5.21,0,0,1-.25,1.64c-.06.31-.27.2-.42.21a4.26,4.26,0,0,0-3.06,1.44.69.69,0,0,0-.25.42c1.13.75,2.27,1.52,3.44,2.18.31.17.26-.23.29-.42q.57-3.5,1.13-7c.15-.92.32-1.82.44-2.74.06-.45.19-.61.49-.65,1-.12,2-.3,3-.33.3,0,.42-.15.41-.61s0-1,0-1.52-.11-.51-.36-.46a6.92,6.92,0,0,0-3.81,2A2.23,2.23,0,0,1,184.18,583.91Zm-.53-11.44a21.27,21.27,0,0,0-2.42,3.18,15.12,15.12,0,0,0-2.49,7,.94.94,0,0,1-.21.55c-.4.56-.8,1.1-1.18,1.66a.43.43,0,0,1-.62.21c-1.84-.74-3.4.16-4.87,1.92.88.7,1.71,1.31,2.51,2,.33.29.55.25.83-.13,2.38-3.14,4.61-6.51,6.89-9.82a2.24,2.24,0,0,0,.23-.69c.41-1.71.82-3.41,1.22-5.12a1.29,1.29,0,0,0,.11-.75l0,0Zm-2,8.57a5.75,5.75,0,0,0-.54,1.26,12.24,12.24,0,0,0-.36,4.76c.09.84-.47,1.63-1,1.41a4,4,0,0,0-4.33,1.29c1.14.89,2.26,1.77,3.39,2.68.2.15.28,0,.38-.2,1.31-3,2.68-5.91,3.8-9.08a2.08,2.08,0,0,0,.18-.78c-.57.07-1,.41-1.66,1.23-.06.06-.09.24-.2.11s0-.18,0-.29c.05-.31.11-.61.18-.93A4.13,4.13,0,0,0,181.64,581Zm2.23,14.49a10.21,10.21,0,0,0,4.55,1c.19,0,.2-.2.2-.41v-1.71c0-1.75,0-1.77-1.13-1.5A6.4,6.4,0,0,0,183.87,595.53Zm9.91,1a.9.9,0,0,0,0-.17c-1-2-2.27-3.26-3.93-3.61-.27-.06-.32.1-.31.46,0,.92,0,1.84,0,2.74,0,.44.08.57.36.57.92,0,1.83,0,2.74,0Zm9.8.13a5.48,5.48,0,0,0-3.79-3c-.21,0-.2.16-.2.37,0,.76,0,1.54,0,2.3,0,.34.09.39.28.39C201.07,596.67,202.26,596.68,203.58,596.68Z" transform="translate(0.99)"/><path class="cls-1" d="M194.36,579.47a74.37,74.37,0,0,1-1.16-7.64,2.41,2.41,0,0,1,0-.71c.09-.46.21-.91.27-1.38.24-1.68,1-2.33,2.06-2.42.32,0,.38,0,.31.5-.37,2.25-.66,4.52-.92,6.8-.15,1.31-.27,2.62-.41,3.94A2.43,2.43,0,0,1,194.36,579.47Z" transform="translate(0.99)"/><path class="cls-1" d="M195.05,565.82c.34-1.43.75-2.73,1.17-4,.12-.35.26-.68.38-1s.4-.38.64-.4.13.15.1.31c-.35,1.55-.69,3.1-1,4.67,0,.16-.1.21-.18.23Z" transform="translate(0.99)"/><path class="cls-1" d="M184.94,567.8c.43-1.6.84-3.08,1.33-4.51a.55.55,0,0,1,.28-.38c.1,0,.22-.1.29,0s0,.27,0,.42c-.26,1.27-.53,2.53-.79,3.81-.06.25-.11.41-.32.43A4.35,4.35,0,0,0,184.94,567.8Z" transform="translate(0.99)"/></g></g></svg>